<?xml version="1.0" encoding="utf-8"?>
<!-- Generator: Adobe Illustrator 23.0.6, SVG Export Plug-In . SVG Version: 6.00 Build 0)  -->
<svg version="1.1" id="Laag_1" xmlns="http://www.w3.org/2000/svg" xmlns:xlink="http://www.w3.org/1999/xlink" x="0px" y="0px"
	 width="104px" height="76px" viewBox="0 0 104 76" style="enable-background:new 0 0 104 76;" xml:space="preserve">
<style type="text/css">
	.st0{fill:#333333;}
</style>
<g>
	<rect x="24" y="74.7" class="st0" width="54.1" height="1.3"/>
	<g>
		<path class="st0" d="M78.7,58.6v5.3c0,1.2,0.1,1.3,1.9,1.4v0.7h-6.1v-0.7c1.9-0.1,1.9-0.2,1.9-1.4V53.1c0-1.2,0-1.2-1.9-1.3V51
			h6.1v0.7c-1.9,0.1-1.9,0.2-1.9,1.3v4.6H86v-4.6c0-1.2,0-1.2-1.9-1.3V51h6.1v0.7c-1.8,0.1-1.9,0.2-1.9,1.3v10.7
			c0,1.2,0.1,1.3,1.9,1.4v0.7h-6.1v-0.7C86,65.1,86,65,86,63.8v-5.3H78.7z"/>
		<path class="st0" d="M98.7,63.8c0,1,0.1,1.2,1.3,1.3l1.1,0.1v0.7h-7v-0.7l1.1-0.1c1.2-0.1,1.3-0.4,1.3-1.3v-12h-1.2
			c-2.5,0-2.9,0.5-3.2,3h-0.8V51h12.5v3.8h-0.7c-0.3-2.5-0.7-3-3.2-3h-1.3V63.8z"/>
		<path class="st0" d="M4.4,63.9c0,1.2,0.1,1.2,1.9,1.4v0.7H0.2v-0.7c1.9-0.1,1.9-0.2,1.9-1.4V53.1c0-1.2,0-1.2-1.9-1.3V51h6.1v0.7
			c-1.9,0.1-1.9,0.2-1.9,1.3V63.9z"/>
		<path class="st0" d="M27.7,63.9c0,1,0.1,1.2,1.3,1.3l1.1,0.1v0.7h-7v-0.7l1.1-0.1c1.2-0.1,1.3-0.4,1.3-1.3V51.8h-1.2
			c-2.5,0-2.9,0.5-3.2,3h-0.8V51h12.6v3.8h-0.7c-0.3-2.5-0.7-3-3.2-3h-1.3V63.9z"/>
		<path class="st0" d="M59,51H46.8v0.7c1.9,0.1,2.8-0.1,2.8,1.3v10.8c0,1.2-0.5,1.4-2,1.4c-1.7,0-2.2-1.1-2.4-2.8
			c-0.2-1.9-0.9-3.7-3.2-4.3v0c2-0.4,3.5-1.4,3.5-3.4c0-2-1-3.7-4.8-3.7h-6.7v0.7c1.9,0.1,1.9,0.2,1.9,1.3v10.8c0,1.2,0,1.2-1.9,1.4
			v0.7h6.1v-0.7c-1.9-0.1-1.9-0.2-1.9-1.4v-5.3h1.4c1.4,0,2.4,0.6,2.8,2.2c0.2,0.6,0.4,2.3,0.6,3.3c0.3,1.4,1.2,1.9,2.5,1.9h2h11.5
			l0.5-4h-0.8c-0.5,2.6-1.5,3.1-4.2,3.1c-2.5,0-2.7-0.4-2.7-1.8v-4.7h1.9c1.8,0,1.9,0.6,2.1,2h0.7v-4.8h-0.7
			c-0.2,1.3-0.3,1.9-2.1,1.9h-1.9v-5.1c0-0.7,0.1-0.8,0.8-0.8H55 M39.9,57.8h-1.6v-4.9c0-0.9,0-1.1,1.4-1.1c1.6,0,3.4,0.2,3.4,3.1
			C43.1,57.1,42,57.8,39.9,57.8"/>
		<path class="st0" d="M54.6,51.8c2.7,0,3.7,0.5,4.2,3.2h0.8l-0.5-4h-4.5"/>
		<path class="st0" d="M73.1,61.6l-0.3,3.7c-1.1,0.6-3,1-4.8,1c-4.7,0-7.3-2.5-7.3-7.7c0-2.4,0.7-4.3,2-5.7c1.3-1.5,2.8-2.3,5.5-2.3
			c1.9,0,3.6,0.4,4.6,0.9V55h-0.8c-0.4-2.5-1.7-3.5-3.9-3.5c-3.5,0-4.8,3.6-4.8,7.1c0,2.6,1.1,7,4.8,7c2.8,0,3.7-1.6,4.3-3.9H73.1z"
			/>
		<path class="st0" d="M19,61.6l-0.3,3.7c-1.1,0.6-3,1-4.8,1c-4.7,0-7.3-2.5-7.3-7.7c0-2.4,0.7-4.3,2-5.7c1.3-1.5,2.8-2.3,5.5-2.3
			c1.9,0,3.6,0.4,4.6,0.9V55h-0.8c-0.4-2.5-1.7-3.5-3.9-3.5c-3.5,0-4.8,3.6-4.8,7.1c0,2.6,1.1,7,4.8,7c2.8,0,3.7-1.6,4.3-3.9H19z"/>
		<path class="st0" d="M57.1,26.4c-1.4-0.3-1.3,1-1.7,2c-0.7,2.1-2.9,3.7-3.8,4.1c-0.8-0.5-2.2-1.7-2.4-2.9
			c-0.4,1.1-1.2,1.8-2.6,2.4c0.2,2.3,0.9,11.3-0.6,12.1c-1.7,0.9-8.1-0.4-7.9,2.1c9.6,0,16.4-0.2,26.3,0c0.7-2.3-7-0.7-8-1.9
			c-1-1.2-1.1-12.2-0.5-14C56.2,29.5,56.8,27.2,57.1,26.4"/>
		<path class="st0" d="M32.1,23.3c-3.3-2-6.9-0.6-8.1,2.8C27,28.3,31.3,26.7,32.1,23.3C31.8,23.1,32,23.8,32.1,23.3"/>
		<path class="st0" d="M36.6,24.6c-3.9-0.2-6.4,2.8-5.8,6.3C34.4,31.4,37.4,28,36.6,24.6C36.2,24.6,36.7,25.1,36.6,24.6"/>
		<path class="st0" d="M40.7,27c-3.8,0.6-5.6,4.1-4.3,7.4C40,34.1,42.2,30.1,40.7,27C40.3,27,40.9,27.5,40.7,27"/>
		<path class="st0" d="M48.8,25.3c-3.8-0.5-6.6,2.2-6.3,5.8C46.1,31.9,49.4,28.8,48.8,25.3C48.4,25.3,48.9,25.9,48.8,25.3"/>
		<path class="st0" d="M43.6,24.5c-1.3-3.6-5-4.8-8-2.9C36.5,25.2,40.8,26.7,43.6,24.5C43.5,24.2,43.1,24.9,43.6,24.5"/>
		<path class="st0" d="M33.8,20.3c-1.3-3.6-5-4.8-8-2.9C26.7,20.9,31,22.4,33.8,20.3C33.7,20,33.4,20.6,33.8,20.3"/>
		<path class="st0" d="M44.1,21.8c1.5-3.6-0.5-6.9-4-7.6C38.4,17.5,40.6,21.5,44.1,21.8C44.3,21.5,43.6,21.8,44.1,21.8"/>
		<path class="st0" d="M38.5,18.9c0.2-3.9-2.7-6.4-6.3-5.8C31.7,16.7,35,19.7,38.5,18.9C38.5,18.5,37.9,19,38.5,18.9"/>
		<path class="st0" d="M42.7,13.3c-0.1-3.9-3.1-6.2-6.6-5.4C35.8,11.6,39.4,14.4,42.7,13.3C42.7,13,42.2,13.5,42.7,13.3"/>
		<path class="st0" d="M41.7,7.3c1.2-3.7-0.9-6.9-4.4-7.3C35.8,3.3,38.2,7.2,41.7,7.3C41.8,7,41.1,7.3,41.7,7.3"/>
		<path class="st0" d="M34.5,11.9c1.1-3.7-1.2-6.8-4.7-7.1C28.5,8.2,31,11.9,34.5,11.9C34.6,11.6,34,11.9,34.5,11.9"/>
		<path class="st0" d="M52,18.1c-3.8-0.8-6.7,1.6-6.8,5.2C48.6,24.5,52.2,21.7,52,18.1C51.6,18.1,52,18.7,52,18.1"/>
		<path class="st0" d="M51.5,11.1c-3.9-0.2-6.4,2.7-5.8,6.3C49.2,17.9,52.3,14.6,51.5,11.1C51.1,11.1,51.6,11.7,51.5,11.1"/>
		<path class="st0" d="M52.6,22c-3.2,2.2-3.4,6.1-0.8,8.5C54.9,28.7,55.3,24.2,52.6,22C52.3,22.2,53,22.3,52.6,22"/>
		<path class="st0" d="M53.3,17.2c-0.7,3.8,1.9,6.7,5.5,6.6C59.7,20.2,56.8,16.8,53.3,17.2C53.2,17.5,53.9,17.1,53.3,17.2"/>
		<path class="st0" d="M58.6,25.3c-0.9,3.8,1.5,6.8,5,6.9C64.9,28.8,62.1,25.1,58.6,25.3C58.5,25.6,59.2,25.3,58.6,25.3"/>
		<path class="st0" d="M65.2,24c-1.3,3.6,0.8,6.9,4.3,7.4C71.1,28.1,68.7,24.2,65.2,24C65.1,24.4,65.8,24.1,65.2,24"/>
		<path class="st0" d="M70,24.9c1.2,3.7,4.9,4.9,8,3.1C77.1,24.4,72.9,22.8,70,24.9C70.1,25.2,70.5,24.5,70,24.9"/>
		<path class="st0" d="M66.8,22.3c3.1,2.3,6.8,1.1,8.3-2.1C72.4,17.8,68,19,66.8,22.3C67.1,22.5,67,21.8,66.8,22.3"/>
		<path class="st0" d="M66,17c3.3,2,6.9,0.6,8.1-2.7C71.2,12.1,66.9,13.6,66,17C66.3,17.2,66.1,16.4,66,17"/>
		<path class="st0" d="M66.6,12.1c3.6,1.5,6.9-0.4,7.6-3.9C71,6.4,67,8.6,66.6,12.1C66.9,12.2,66.6,11.5,66.6,12.1"/>
		<path class="st0" d="M57.4,17c3.3,2,6.9,0.6,8.1-2.7C62.6,12.1,58.3,13.6,57.4,17C57.7,17.2,57.6,16.4,57.4,17"/>
		<path class="st0" d="M59.8,12.1c3.8,0.8,6.7-1.6,6.8-5.2C63.1,5.7,59.5,8.6,59.8,12.1C60.1,12.2,59.7,11.5,59.8,12.1"/>
		<path class="st0" d="M52.7,15.8c3.9,0,6.2-3.1,5.5-6.5C54.6,8.9,51.7,12.4,52.7,15.8C53.1,15.8,52.5,15.2,52.7,15.8"/>
		<path class="st0" d="M50.7,10.1c3.7-0.9,5.3-4.5,3.7-7.7C50.8,2.9,48.9,7,50.7,10.1C51,10,50.4,9.6,50.7,10.1"/>
		<path class="st0" d="M45.5,12.2c3.1-2.4,3-6.2,0.3-8.5C42.8,5.6,42.7,10.1,45.5,12.2C45.8,12,45.1,11.9,45.5,12.2"/>
		<path class="st0" d="M57.4,7.5c3.9,0.2,6.4-2.7,5.9-6.2C59.6,0.7,56.5,4.1,57.4,7.5C57.7,7.6,57.2,7,57.4,7.5"/>
		<path class="st0" d="M59.8,24.1c3.8,0.8,6.7-1.7,6.7-5.2C63.1,17.7,59.5,20.6,59.8,24.1C60.2,24.2,59.8,23.5,59.8,24.1"/>
	</g>
</g>
</svg>
